<svg width="128" height="128" viewBox="0 0 33.867 33.867" xml:space="preserve" xmlns:xlink="http://www.w3.org/1999/xlink" xmlns="http://www.w3.org/2000/svg"><defs><linearGradient id="c" x1="0" y1="0" x2="0" y2="1"><stop offset="0" stop-color="#9d76d4" style="stop-color:#9d76d4;stop-opacity:.28999999"/><stop offset="1" stop-color="#c5a9ee" style="stop-color:#c5a9ee;stop-opacity:.28999999"/></linearGradient><linearGradient id="h" x1="203.961" y1="82.369" x2="356.931" y2="235.339" gradientTransform="matrix(.0492 0 0 .14213 3.232 -1.758)" gradientUnits="userSpaceOnUse"><stop offset="0%" stop-color="#f4ebff"/><stop offset="100%" stop-color="#d6c0f5"/></linearGradient><linearGradient id="a" x1="0" y1="0" x2="0" y2="1"><stop offset="0%" stop-color="#c5a9ee"/><stop offset="100%" stop-color="#9d76d4"/></linearGradient><linearGradient id="b" x1="0" y1="0" x2="1" y2="1"><stop offset="0%" stop-color="#7353b3"/><stop offset="100%" stop-color="#4d3285"/></linearGradient><linearGradient id="d" x1="482.991" y1="22.361" x2="482.991" y2="156.525" gradientTransform="matrix(.03116 0 0 .22438 3.232 -1.758)" gradientUnits="userSpaceOnUse"><stop offset="0" stop-color="#55398c" style="stop-color:#55398c;stop-opacity:.08297631"/><stop offset="100%" stop-color="#3b206b"/></linearGradient><linearGradient xlink:href="#a" id="j" x1="183.347" y1="94.742" x2="183.347" y2="105.967" gradientTransform="matrix(.03547 0 0 .19708 3.232 -1.758)" gradientUnits="userSpaceOnUse"/><linearGradient xlink:href="#a" id="i" x1="128.996" y1="167.447" x2="128.996" y2="248.069" gradientTransform="matrix(.05186 0 0 .13483 3.232 -1.758)" gradientUnits="userSpaceOnUse"/><linearGradient xlink:href="#b" id="f" x1="122.202" y1="91.652" x2="213.854" y2="183.303" gradientTransform="matrix(.05474 0 0 .12773 3.232 -1.758)" gradientUnits="userSpaceOnUse"/><linearGradient xlink:href="#b" id="e" x1="97.84" y1="27.596" x2="217.423" y2="147.179" gradientTransform="matrix(.07692 0 0 .0909 3.232 -1.758)" gradientUnits="userSpaceOnUse"/><linearGradient xlink:href="#c" id="k" gradientUnits="userSpaceOnUse" gradientTransform="matrix(.03547 0 0 .19708 3.229 -1.778)" x1="183.347" y1="105.967" x2="183.347" y2="94.742"/><linearGradient xlink:href="#c" id="l" gradientUnits="userSpaceOnUse" gradientTransform="matrix(.03547 0 0 .19708 3.166 -1.797)" x1="183.347" y1="105.967" x2="183.347" y2="94.742"/></defs><path fill="#9d76d4" d="m18.284 33.362-4.181-1.672-4.181-10.87.836-10.871L14.938.75l5.018 2.508 2.509 6.69v16.724Z"/><path fill="url(#d)" style="fill:url(#d);stroke-width:.08362" d="m22.465 26.673-4.181 6.69L19.12 25l1.672-15.05-.836-6.69 2.509 6.69z"/><path fill="url(#b)" style="fill:url(#e);stroke-width:.08362" d="m14.939.75 5.017 2.509-5.017 8.362-4.181-1.672Z"/><path d="M14.938.75q3.344 5.018 0 10.87l-4.181-1.672Z" fill="#8864c7" opacity=".6" style="stroke-width:.083615"/><path fill="url(#b)" style="fill:url(#f);stroke-width:.08362" d="m10.758 9.949 4.18 1.672-1.672 10.034-3.344-.836z"/><path d="M10.757 9.948q4.18 5.017-.836 10.87l3.344.837z" fill="#6646a3" style="stroke-width:.083615"/><path fill="url(#h)" style="fill:url(#h);stroke-width:.08362" d="m14.939 11.621 5.853-1.672L19.12 25l-5.017 6.69-.837-10.035z"/><path d="M14.938 11.62c3.344 3.345 5.017 10.035-.836 20.068l5.016-6.69 1.673-15.05z" fill="#eaddf7" style="stroke-width:.083615"/><path d="M14.938 11.62q1.672 6.69-1.673 10.035z" fill="#c3a8eb" style="stroke-width:.083615"/><path fill="url(#a)" style="fill:url(#i);stroke-width:.08362" d="M14.103 31.69 9.922 20.82l3.344.835z"/><path d="M9.92 20.818q3.345 4.18 4.182 10.87l-.837-10.033z" fill="#b08cdb" style="stroke-width:.083615"/><path fill="#b596de" d="m18.284 33.362-4.181-1.672L19.12 25z"/><path fill="#f8f2ff" opacity=".8" d="m15.775 32.359-1.672-.67L16.611 25z"/><path d="M19.118 24.999q-2.508 5.017-.836 8.362z" fill="url(#a)" style="fill:url(#j);stroke-width:.083615"/><path style="fill:url(#k);stroke-width:.083615" d="M19.116 24.978q-2.509 5.017-.836 8.362zm-3.345 7.358-1.672-.668 2.508-6.69zm2.509 1.004-4.181-1.672 5.017-6.69zM9.918 20.798q3.345 4.18 4.18 10.87l-.835-10.034zm4.18 10.87-4.18-10.87 3.345.836zm.837-20.068q1.672 6.69-1.672 10.034zm0 0c3.345 3.345 5.017 10.034-.836 20.068l5.017-6.69 1.672-15.05zm-1.672 10.034L14.935 11.6l5.853-1.672-1.672 15.05-5.017 6.69zM10.754 9.928q4.181 5.017-.836 10.87l3.345.836zm2.509 11.706-3.345-.836.836-10.87 4.181 1.672zM14.935.73q3.345 5.017 0 10.87l-4.18-1.672zm0 10.87-4.18-1.672L14.935.73l5.017 2.508zm7.525 15.05-4.18 6.69.836-8.362 1.672-15.05-.836-6.69 2.508 6.69ZM9.918 20.798l.836-10.87L14.935.73l5.017 2.508 2.508 6.69V26.65l-4.18 6.689-4.181-1.672z"/><path style="display:inline;opacity:.5;mix-blend-mode:screen;fill:url(#l);stroke-width:.083615" d="M19.053 24.96q-2.508 5.017-.836 8.36zm-3.344 7.358-1.673-.67 2.509-6.69zm2.508 1.003-4.18-1.672 5.016-6.69zM9.856 20.779q3.344 4.18 4.18 10.87L13.2 21.615zm4.18 10.87-4.18-10.87 3.344.836zm.836-20.068q1.673 6.69-1.672 10.034zm0 0c3.345 3.345 5.017 10.034-.836 20.068l5.017-6.69 1.673-15.05zM13.2 21.616l1.672-10.034 5.854-1.672-1.673 15.05-5.017 6.69zM10.692 9.91q4.18 5.017-.836 10.87l3.344.836zM13.2 21.616l-3.344-.836.836-10.87 4.18 1.672zM14.872.713q3.345 5.016 0 10.87l-4.18-1.673zm0 10.87-4.18-1.673 4.18-9.197 5.017 2.508zm7.526 15.05-4.18 6.69.835-8.362 1.673-15.05-.837-6.69 2.509 6.69zM9.856 20.78l.836-10.87 4.18-9.197 5.017 2.508 2.509 6.69v16.722l-4.18 6.69-4.182-1.673z"/></svg>
